# Blender 3.6.2
# www.blender.org
o bus-interior_grey
v 6.597318 1.193838 0.195844
v 7.027305 1.312063 0.195844
v 6.597206 1.193003 1.080797
v 6.597318 1.098925 0.195844
v 6.597318 1.098925 1.079059
v 6.721797 1.193003 0.887673
v 6.721909 1.193838 0.550275
v 6.597318 1.193838 0.357894
v 6.721909 1.098925 0.885316
v 6.721909 1.098925 0.550275
v 6.597318 1.098925 0.357894
v 6.597318 0.730998 0.195844
v 6.597318 0.730998 0.357894
v 6.829111 1.193838 -1.073237
v 5.896141 1.625840 -0.084146
v 6.829111 1.098925 -1.073237
v 6.829111 1.193838 -0.084146
v 7.027304 1.312063 -0.084146
v 6.829111 0.314318 -1.073237
v 6.829111 1.098925 -0.084146
v 6.829111 0.730998 -0.084146
v 6.730697 1.269886 0.195246
v 6.868881 1.269886 1.079059
v 6.868881 1.269886 0.357894
v 7.001703 0.920349 1.079059
v 7.001703 0.730998 0.357894
v 7.001703 0.920349 0.357894
v 7.001703 0.730998 1.079059
v 6.597318 0.730998 1.079059
v 7.013187 1.312063 0.983340
v 5.896141 1.193003 1.080797
v 5.896141 0.730998 1.079059
v 5.896141 0.730998 0.195844
v 5.896141 0.730998 -0.084146
v 6.829111 0.730998 -0.530555
v 6.829111 1.193838 -0.530555
v 6.829111 1.098925 -0.530555
v 7.027304 1.312063 -0.530555
v 6.168259 0.730998 -0.530555
v 6.168259 0.314318 -1.073237
v 7.027304 1.312063 -0.950032
v 6.921494 1.248945 -1.073237
v 7.019250 1.307258 -0.997180
v 6.996313 1.293576 -1.037151
v 6.961986 1.273099 -1.063859
v 6.168259 1.625840 -0.530555
v 6.168259 1.625840 -1.073237
v 6.597206 1.193003 1.112335
v 6.872669 1.306835 1.074938
v 5.896141 1.193003 1.112335
v 5.896141 1.625840 -0.130633
v 6.146691 1.625840 -0.554082
v 6.146691 1.625840 -1.061685
v 6.738076 1.347046 1.079844
v 6.811569 1.356254 1.079087
v 6.738076 1.347046 1.109402
v 6.474301 2.627057 1.055148
v 6.538192 2.612187 1.052784
v 6.475453 2.627057 1.065432
v 6.904363 1.297820 1.071358
v 6.839695 1.322272 1.078134
v 6.819809 1.337470 1.079232
v 6.941332 1.292081 1.057899
v 6.988111 1.305371 1.024086
v 6.665125 1.212224 1.080363
v 6.739268 1.233206 1.079889
v 6.660509 1.214180 1.111566
v 6.739268 1.233206 1.111467
vn -0.8407 0.0108 -0.5415
vn -1.0000 -0.0000 -0.0000
vn -0.8394 -0.0000 0.5436
vn -1.0000 -0.0006 -0.0002
vn -0.1406 0.9880 0.0640
vn -0.2167 0.9753 0.0435
vn -0.1710 0.9849 0.0289
vn -0.7703 -0.0000 -0.6377
vn 1.0000 -0.0000 -0.0000
vn -0.4594 0.8027 -0.3803
vn -0.4629 0.8004 -0.3809
vn -0.4975 0.8378 -0.2251
vn -0.3984 0.9153 0.0591
vn -0.3994 0.9149 -0.0589
vn -0.3584 0.9286 -0.0964
vn -0.3533 0.9284 0.1150
vn -0.3156 0.9357 0.1576
vn -0.3476 0.9259 0.1479
vn -0.2711 0.9560 -0.1120
vn -0.1793 0.9818 -0.0626
vn -0.1483 0.9886 -0.0259
vn -0.2754 0.9600 -0.0502
vn -0.3908 -0.8850 0.2531
vn -0.4924 -0.8659 0.0876
vn -0.4807 -0.8701 0.1086
vn -0.4922 -0.8661 -0.0875
vn -0.4809 -0.8702 -0.1076
vn -0.3910 -0.8854 -0.2514
vn -0.0000 -0.0000 1.0000
vn -0.0000 -0.0000 -1.0000
vn -0.0005 0.0010 -1.0000
vn -0.0004 0.0070 -1.0000
vn -0.1408 0.9900 -0.0000
vn -0.5076 0.8510 -0.1347
vn -0.0000 1.0000 -0.0000
vn -0.0011 0.0021 -1.0000
vn -0.0010 0.0035 -1.0000
vn -0.0000 0.0185 -0.9998
vn -0.5123 0.8588 -0.0000
vn -0.0000 0.7932 -0.6090
vn 0.8539 -0.0000 0.5205
vn -0.2813 0.9596 -0.0047
vn -0.9942 -0.1066 0.0143
vn -0.9944 -0.1045 0.0140
vn -0.9793 -0.2006 0.0283
vn -0.0155 -0.0176 -0.9997
vn -0.0157 -0.0135 -0.9998
vn -0.0237 -0.0251 -0.9994
vn -0.2851 0.9584 -0.0084
vn -0.2965 0.9547 -0.0269
vn -0.3056 0.9509 -0.0491
vn -0.9999 -0.0105 -0.0000
vn -0.2643 0.9553 -0.1324
vn -0.2530 0.9662 -0.0487
vn -0.0210 0.0064 -0.9998
vn -0.0097 -0.0033 -0.9999
vn -0.1025 -0.0338 -0.9942
vn -0.0424 -0.0160 -0.9990
vn -0.1395 -0.0956 -0.9856
vn -0.2694 0.0775 -0.9599
vn -0.3183 0.1461 -0.9367
vt 0.000000 0.750000
vt 0.000000 1.000000
vt 0.000000 0.000000
vt 0.000000 0.250000
vt 0.000000 0.500000
vt 0.346782 0.000000
vt 0.643253 0.250000
vt 1.000000 0.250000
vt 0.000000 0.327770
vt 0.000000 0.172230
vt 0.500000 0.250000
vt 0.643253 0.750000
vt 0.643253 0.500000
vt 0.160813 1.000000
vt 1.000000 0.000000
vt 1.000000 0.327770
vt 0.500000 0.327770
vt 0.979681 0.475862
vt 0.733062 0.500000
vt 1.000000 0.460899
vt 1.000000 0.708473
vt 1.000000 0.500000
vt 0.500000 0.500000
vt 0.835215 0.497024
vt 0.921816 0.488548
vt 0.621226 1.000000
vt 0.622571 1.000000
vt 0.643253 1.000000
vt 0.892143 0.721028
vt 0.729284 0.739985
vt 0.734541 0.739374
vt 0.925420 0.717154
vt 0.464600 0.988544
vt 0.456020 1.000000
vt 0.336364 1.000000
vt 0.321626 1.000000
vt 0.034380 0.040085
vt 0.024793 0.028908
s 1
f 6/1/1 9/1/1 5/2/1 3/2/1
f 1/3/2 4/3/2 11/4/2 8/4/2
f 8/4/3 11/4/3 10/5/3 7/5/3
f 7/5/4 10/5/4 9/1/4 6/1/4
f 22/6/5 24/7/6 2/8/7
f 4/3/2 12/3/2 13/4/2 11/4/2
f 1/3/8 17/4/8 20/4/8 4/3/8
f 36/9/2 14/5/2 16/5/2 37/9/2
f 40/3/9 47/3/9 46/3/9 39/3/9
f 35/10/2 37/9/2 16/5/2 19/3/2
f 4/3/8 20/4/8 21/4/8 12/3/8
f 1/3/10 22/6/11 17/11/12
f 7/5/13 6/1/14 23/12/15 24/13/16
f 8/4/17 7/5/13 24/13/16
f 1/3/18 8/4/17 24/7/16 22/6/18
f 65/14/19 3/2/20 48/2/21 67/14/22
f 11/4/23 27/4/24 10/5/25
f 10/5/25 27/5/24 25/1/26 9/1/27
f 9/1/27 25/1/26 5/2/28
f 27/5/2 26/5/2 28/1/2 25/1/2
f 11/4/29 13/4/29 26/5/29 27/4/29
f 28/1/30 29/3/31 5/2/32 25/1/30
f 2/15/7 18/3/33 22/6/5
f 18/3/34 17/11/12 22/6/11
f 13/4/35 29/3/35 28/1/35 26/5/35
f 29/3/31 32/3/36 31/2/37 5/2/32
f 5/2/32 31/2/37 3/2/38
f 29/3/35 13/4/35 32/3/35
f 12/3/35 32/3/35 13/4/35
f 32/3/35 12/3/35 33/3/35
f 34/3/35 33/3/35 12/3/35 21/4/35
f 21/4/2 20/4/2 37/9/2 35/10/2
f 17/11/12 18/8/34 38/16/39 36/17/39
f 17/4/2 36/9/2 37/9/2 20/4/2
f 39/3/35 34/3/35 21/4/35
f 21/4/35 35/10/35 39/3/35
f 40/3/40 39/3/40 35/10/40 19/3/40
f 43/18/39 42/19/39 41/20/39
f 39/3/41 46/3/41 15/3/41 34/3/41
f 24/13/6 30/21/42 2/22/7
f 38/16/39 41/20/39 36/17/39
f 36/17/39 41/20/39 14/23/39
f 14/23/39 41/20/39 42/19/39
f 42/19/39 43/18/39 45/24/39
f 45/24/39 43/18/39 44/25/39
f 31/2/35 50/2/35 48/2/21 3/2/20
f 46/3/35 52/3/35 51/3/35 15/3/35
f 47/3/35 53/3/35 52/3/35 46/3/35
f 54/26/43 56/27/44 59/28/45 57/28/45
f 55/29/46 54/30/47 57/31/48 58/32/48
f 30/3/42 23/3/49 64/3/50
f 64/3/50 23/3/49 63/3/51
f 30/3/42 24/13/6 23/3/49
f 56/27/44 54/26/43 66/33/52 68/34/52
f 66/35/53 65/14/19 67/14/22 68/36/54
f 23/12/15 6/1/14 66/33/53
f 66/35/53 6/1/14 65/14/19
f 6/1/14 3/2/20 65/14/19
f 62/3/55 66/33/56 54/26/47
f 54/26/47 55/29/46 62/3/55
f 23/12/57 66/33/56 61/3/58
f 66/33/56 62/3/55 61/3/58
f 49/37/59 23/12/57 61/3/58
f 60/38/60 23/12/57 49/37/59
f 63/3/61 23/3/57 60/38/60
o bus-interior_windscreen
v 7.034866 1.231188 -0.999737
v 6.300548 0.964821 -1.134456
v 6.555940 2.659800 -1.083128
v 6.746303 2.563546 -0.926815
v 7.094245 1.246821 -0.671785
v 6.767258 2.533682 -0.655595
v 7.091712 1.256795 0.000000
v 6.767258 2.533682 0.000000
v 5.679005 2.706002 -1.083128
v 6.670911 0.868478 -1.134456
v 7.006563 0.862813 -1.094230
v 6.038104 1.181131 -1.134456
v 6.650454 2.621615 -1.027063
v 7.023964 1.281527 0.996982
v 6.334346 1.189132 1.109701
v 6.555940 2.659800 1.062502
v 6.746303 2.563546 0.926815
v 7.070205 1.276293 0.675502
v 6.767258 2.533682 0.655595
v 5.679005 2.706002 1.083128
v 6.595724 1.187872 1.108574
v 6.911102 1.277804 1.089728
v 6.035934 1.190340 1.110857
v 6.650454 2.621615 1.027063
v 6.987303 1.281065 1.047364
v 6.704307 2.592580 0.982248
v 6.808246 1.252381 1.098540
v 6.603197 2.640707 1.055095
vn -0.8217 -0.2044 0.5321
vn -0.9690 -0.2390 0.0629
vn -0.9689 -0.2389 0.0640
vn -0.8458 -0.2094 0.4907
vn -0.9699 -0.2434 -0.0060
vn -0.9699 -0.2433 -0.0061
vn -0.0075 -0.0303 0.9995
vn -0.1314 -0.0482 0.9902
vn -0.0979 -0.0446 0.9942
vn -0.3935 -0.1040 0.9134
vn -0.3244 -0.0870 0.9419
vn -0.0074 -0.0321 0.9995
vn -0.9188 -0.2212 -0.3268
vn -0.9040 -0.2191 -0.3672
vn -0.9709 -0.2327 -0.0556
vn -0.9710 -0.2331 -0.0537
vn -0.0127 -0.0284 -0.9995
vn -0.0357 -0.0306 -0.9989
vn -0.0302 -0.0337 -0.9990
vn -0.7103 -0.1843 -0.6793
vn -0.4132 -0.1195 -0.9028
vn -0.3559 -0.1062 -0.9285
vn -0.6633 -0.1748 -0.7277
vn -0.1414 -0.0556 -0.9884
vn -0.1220 -0.0510 -0.9912
vn -0.0196 -0.0260 -0.9995
vt 0.254089 0.088848
vt 0.335113 0.087592
vt 0.344487 0.409949
vt 0.278712 0.419496
vt 0.498287 0.087337
vt 0.503688 0.407262
vt 0.056858 0.073201
vt 0.137584 0.027139
vt 0.224257 0.454569
vt 0.247977 0.439217
vt 0.216437 0.004229
vt 0.021595 0.521009
vt 0.009022 0.140539
vt 0.741317 0.093001
vt 0.728962 0.411798
vt 0.662889 0.404598
vt 0.662467 0.090442
vt 0.918730 0.109493
vt 0.784793 0.445016
vt 0.856994 0.094710
vt 0.756354 0.094703
vt 0.777275 0.098065
vt 0.760586 0.430446
vt 0.744930 0.420743
vt 0.803096 0.097958
vt 0.772763 0.437608
vt 0.989226 0.126317
vt 0.989589 0.504552
s 1
f 69/39/62 73/40/63 74/41/64 72/42/65
f 73/40/63 75/43/66 76/44/67 74/41/64
f 70/45/68 78/46/69 71/47/70
f 69/39/62 72/42/65 81/48/71 79/49/72
f 79/49/72 81/48/71 71/47/70 78/46/69
f 70/45/68 71/47/70 77/50/73 80/51/73
f 82/52/74 85/53/75 87/54/76 86/55/77
f 86/55/77 87/54/76 76/44/67 75/43/66
f 83/56/78 84/57/79 89/58/80
f 93/59/81 90/60/82 92/61/83 94/62/84
f 95/63/85 89/58/80 84/57/79 96/64/86
f 83/56/78 91/65/87 88/66/87 84/57/79
f 82/52/74 93/59/81 94/62/84 85/53/75
f 90/60/82 95/63/85 96/64/86 92/61/83
